<?xml version="1.0" encoding="UTF-8" standalone="no"?><!DOCTYPE svg PUBLIC "-//W3C//DTD SVG 1.1//EN" "http://www.w3.org/Graphics/SVG/1.1/DTD/svg11.dtd"><svg width="100%" height="100%" viewBox="0 0 512 512" version="1.1" xmlns="http://www.w3.org/2000/svg" xmlns:xlink="http://www.w3.org/1999/xlink" xml:space="preserve" xmlns:serif="http://www.serif.com/" style="fill-rule:evenodd;clip-rule:evenodd;stroke-linejoin:round;stroke-miterlimit:2;"><path d="M0,50c-0,-13.261 5.268,-25.979 14.645,-35.355c9.377,-9.377 22.095,-14.645 35.355,-14.645l412,0c13.261,-0 25.979,5.268 35.355,14.645c9.377,9.377 14.645,22.095 14.645,35.355l-0,412c0,13.261 -5.268,25.979 -14.645,35.355c-9.377,9.377 -22.095,14.645 -35.355,14.645l-412,-0c-13.261,0 -25.979,-5.268 -35.355,-14.645c-9.377,-9.377 -14.645,-22.095 -14.645,-35.355l0,-412Zm85,89l0,27l64,0l0,207l29,0l0,-207l64,0l0,-27l-157,0Zm205,0l0,234l29,0l0,-103l100,0l0,-27l-101,0l0,-77c7.857,0.012 15.714,0.023 23.809,0.035c4.963,0.005 9.926,0.01 14.889,0.014c7.886,0.006 15.772,0.013 23.657,0.027c6.354,0.011 12.708,0.017 19.063,0.019c2.43,0.002 4.86,0.005 7.291,0.011c3.391,0.007 6.782,0.008 10.173,0.008c1.523,0.005 1.523,0.005 3.078,0.011c1.378,-0.002 1.378,-0.002 2.783,-0.004c1.204,0.001 1.204,0.001 2.433,0.003c1.845,0.077 1.845,0.077 2.825,-1.123c0.1,-1.842 0.131,-3.687 0.133,-5.531c0.002,-1.68 0.002,-1.68 0.004,-3.395c-0.004,-1.179 -0.008,-2.359 -0.012,-3.574c0.004,-1.179 0.008,-2.359 0.012,-3.574c-0.001,-1.12 -0.003,-2.24 -0.004,-3.395c-0.002,-1.554 -0.002,-1.554 -0.003,-3.139c0.14,-2.346 0.14,-2.346 -1.129,-3.393c-1.772,-0.096 -3.547,-0.122 -5.321,-0.12c-1.728,-0.002 -1.728,-0.002 -3.49,-0.004c-1.28,0.004 -2.56,0.007 -3.878,0.011c-1.372,0 -2.744,0 -4.115,-0c-3.686,-0 -7.372,0.006 -11.057,0.013c-3.454,0.006 -6.908,0.006 -10.362,0.007c-10.113,0.005 -20.225,0.019 -30.338,0.032c-22.584,0.021 -45.169,0.041 -68.438,0.062Z" style="fill-rule:nonzero;"/></svg>